<?xml version="1.0" encoding="UTF-8" standalone="no"?>
<!-- Generator: Adobe Illustrator 16.0.4, SVG Export Plug-In . SVG Version: 6.00 Build 0)  -->

<svg
   xmlns:dc="http://purl.org/dc/elements/1.1/"
   xmlns:cc="http://creativecommons.org/ns#"
   xmlns:rdf="http://www.w3.org/1999/02/22-rdf-syntax-ns#"
   xmlns:svg="http://www.w3.org/2000/svg"
   xmlns="http://www.w3.org/2000/svg"
   xmlns:sodipodi="http://sodipodi.sourceforge.net/DTD/sodipodi-0.dtd"
   xmlns:inkscape="http://www.inkscape.org/namespaces/inkscape"
   version="1.1"
   id="Layer_1"
   x="0px"
   y="0px"
   width="214.44475"
   height="29.34375"
   viewBox="0 0 214.44475 29.34375"
   enable-background="new 0 0 792 612"
   xml:space="preserve"
   inkscape:version="0.48.4 r9939"
   sodipodi:docname="byosrf.svg"><metadata
     id="metadata73"><rdf:RDF><cc:Work
         rdf:about=""><dc:format>image/svg+xml</dc:format><dc:type
           rdf:resource="http://purl.org/dc/dcmitype/StillImage" /></cc:Work></rdf:RDF></metadata><defs
     id="defs71" /><sodipodi:namedview
     pagecolor="#000000"
     bordercolor="#666666"
     borderopacity="1"
     objecttolerance="10"
     gridtolerance="10"
     guidetolerance="10"
     inkscape:pageopacity="0"
     inkscape:pageshadow="2"
     inkscape:window-width="2536"
     inkscape:window-height="1149"
     id="namedview69"
     showgrid="false"
     fit-margin-top="0"
     fit-margin-left="0"
     fit-margin-right="0"
     fit-margin-bottom="0"
     inkscape:zoom="5.8989899"
     inkscape:cx="64.81948"
     inkscape:cy="1.7928163"
     inkscape:window-x="2582"
     inkscape:window-y="81"
     inkscape:window-maximized="0"
     inkscape:current-layer="Layer_1" /><g
     id="g3"
     transform="translate(-312.03125,-305.46875)"><path
       d="m 356.143,313.193 c -0.985,0 -1.478,1.798 -1.478,5.904 0,4.105 0.529,5.902 1.514,5.902 0.986,0 1.48,-1.797 1.48,-5.902 0,-4.106 -0.532,-5.904 -1.516,-5.904 m 0.018,13.033 c -2.006,0 -2.747,-2.469 -2.747,-7.128 0,-4.661 0.741,-7.128 2.747,-7.128 2.008,0 2.747,2.467 2.747,7.128 0,4.659 -0.739,7.128 -2.747,7.128"
       id="path5"
       inkscape:connector-curvature="0"
       style="fill:#ffffff" /><path
       d="m 363.056,316.586 c -0.417,0 -0.833,0.261 -1.195,0.613 v 7.228 c 0.437,0.414 0.816,0.633 1.269,0.633 0.892,0 1.1,-1.817 1.1,-4.228 0,-2.941 -0.303,-4.246 -1.174,-4.246 m 0.152,9.64 c -0.55,0 -0.985,-0.319 -1.347,-0.674 v 3.516 l -1.174,0.752 v -14.178 h 1.174 v 0.531 c 0.362,-0.415 0.874,-0.75 1.423,-0.75 1.666,0 2.141,2.074 2.141,5.37 0,3.456 -0.57,5.433 -2.217,5.433"
       id="path7"
       inkscape:connector-curvature="0"
       style="fill:#ffffff" /><path
       d="m 369.211,316.628 c -0.644,0 -1.136,1.046 -1.211,3.456 h 2.387 c -0.057,-1.995 -0.417,-3.456 -1.176,-3.456 m -1.231,4.621 c 0.038,2.272 0.38,3.77 1.251,3.77 0.624,0 0.89,-0.415 1.419,-1.343 l 0.816,0.672 c -0.53,1.046 -1.137,1.878 -2.255,1.878 -1.628,0 -2.387,-1.977 -2.387,-5.333 0,-3.555 0.873,-5.47 2.425,-5.47 1.516,0 2.312,1.915 2.312,5.549 v 0.277 h -3.581 z"
       id="path9"
       inkscape:connector-curvature="0"
       style="fill:#ffffff" /><path
       d="m 376.637,326.005 v -7.739 c 0,-1.244 -0.282,-1.68 -0.965,-1.68 -0.417,0 -0.873,0.257 -1.231,0.613 v 8.806 h -1.175 v -10.363 h 1.175 v 0.511 c 0.397,-0.395 0.889,-0.729 1.61,-0.729 1.286,0 1.76,1.046 1.76,2.766 v 7.816 h -1.174 z"
       id="path11"
       inkscape:connector-curvature="0"
       style="fill:#ffffff" /><path
       d="m 385.257,326.226 c -1.518,0 -2.258,-1.185 -2.522,-3.261 l 1.234,-0.294 c 0.284,1.816 0.719,2.329 1.305,2.329 0.778,0 1.212,-0.674 1.212,-1.639 0,-1.286 -0.549,-2.688 -1.798,-4.126 -1.423,-1.661 -1.819,-2.706 -1.819,-4.426 0,-1.558 0.834,-2.84 2.293,-2.84 1.535,0 2.12,1.084 2.5,2.723 l -1.232,0.376 c -0.36,-1.422 -0.663,-1.875 -1.307,-1.875 -0.683,0 -1.024,0.788 -1.024,1.499 0,1.104 0.265,1.977 1.517,3.435 1.438,1.659 2.101,3.219 2.101,5.057 0.001,1.816 -0.946,3.042 -2.46,3.042"
       id="path13"
       inkscape:connector-curvature="0"
       style="fill:#ffffff" /><path
       d="m 391.677,316.628 c -0.926,0 -1.344,1.342 -1.344,4.204 0,2.864 0.454,4.187 1.383,4.187 0.929,0 1.346,-1.322 1.346,-4.187 0,-2.862 -0.456,-4.204 -1.385,-4.204 m 0.02,9.598 c -1.686,0 -2.557,-1.855 -2.557,-5.394 0,-3.533 0.871,-5.409 2.557,-5.409 1.686,0 2.557,1.876 2.557,5.409 0,3.538 -0.871,5.394 -2.557,5.394"
       id="path15"
       inkscape:connector-curvature="0"
       style="fill:#ffffff" /><path
       d="m 399.256,326.005 v -0.511 c -0.396,0.396 -0.891,0.731 -1.611,0.731 -1.287,0 -1.76,-1.049 -1.76,-2.767 v -7.817 h 1.174 v 7.738 c 0,1.246 0.283,1.68 0.965,1.68 0.418,0 0.873,-0.256 1.232,-0.612 v -8.806 h 1.174 v 10.363 h -1.174 z"
       id="path17"
       inkscape:connector-curvature="0"
       style="fill:#ffffff" /><path
       d="m 405.545,316.906 c -0.322,-0.179 -0.55,-0.237 -0.911,-0.237 -0.435,0 -0.796,0.237 -1.06,0.551 v 8.785 h -1.175 v -10.363 h 1.175 v 0.511 c 0.359,-0.415 0.834,-0.729 1.4,-0.729 0.455,0 0.685,0.077 0.931,0.197 l -0.36,1.285 z"
       id="path19"
       inkscape:connector-curvature="0"
       style="fill:#ffffff" /><path
       d="m 408.937,326.226 c -1.591,0 -2.425,-1.977 -2.425,-5.333 0,-3.555 0.871,-5.47 2.441,-5.47 1.215,0 1.744,1.027 2.068,2.31 l -1.042,0.553 c -0.267,-0.966 -0.457,-1.657 -1.063,-1.657 -0.758,0 -1.212,1.282 -1.212,4.244 0,2.47 0.323,4.146 1.271,4.146 0.492,0 0.719,-0.454 1.136,-1.578 l 0.946,0.592 c -0.453,1.361 -1.098,2.193 -2.12,2.193"
       id="path21"
       inkscape:connector-curvature="0"
       style="fill:#ffffff" /><path
       d="m 414.583,316.628 c -0.646,0 -1.138,1.046 -1.212,3.456 h 2.385 c -0.055,-1.995 -0.414,-3.456 -1.173,-3.456 m -1.232,4.621 c 0.038,2.272 0.38,3.77 1.251,3.77 0.625,0 0.89,-0.415 1.42,-1.343 l 0.814,0.672 c -0.527,1.046 -1.135,1.878 -2.253,1.878 -1.63,0 -2.388,-1.977 -2.388,-5.333 0,-3.555 0.873,-5.47 2.426,-5.47 1.516,0 2.312,1.915 2.312,5.549 v 0.277 h -3.582 z"
       id="path23"
       inkscape:connector-curvature="0"
       style="fill:#ffffff" /><path
       d="m 423.999,313.408 h -0.646 v 4.938 h 0.646 c 1.099,0 1.761,-0.91 1.761,-2.51 0,-1.579 -0.662,-2.428 -1.761,-2.428 m 1.874,12.597 -1.459,-6.515 c -0.283,0.041 -0.643,0.041 -1.061,0.041 v 6.474 h -1.212 v -13.82 h 1.895 c 1.666,0 2.955,1.146 2.955,3.553 0,1.622 -0.569,2.688 -1.384,3.279 l 1.555,6.988 h -1.289 z"
       id="path25"
       inkscape:connector-curvature="0"
       style="fill:#ffffff" /><path
       d="m 430.834,316.628 c -0.928,0 -1.345,1.342 -1.345,4.204 0,2.864 0.454,4.187 1.383,4.187 0.929,0 1.347,-1.322 1.347,-4.187 0,-2.862 -0.457,-4.204 -1.385,-4.204 m 0.019,9.598 c -1.686,0 -2.556,-1.855 -2.556,-5.394 0,-3.533 0.87,-5.409 2.556,-5.409 1.685,0 2.558,1.876 2.558,5.409 -10e-4,3.538 -0.874,5.394 -2.558,5.394"
       id="path27"
       inkscape:connector-curvature="0"
       style="fill:#ffffff" /><path
       d="m 437.465,316.586 c -0.417,0 -0.835,0.261 -1.193,0.613 v 7.228 c 0.435,0.414 0.814,0.633 1.268,0.633 0.893,0 1.102,-1.817 1.102,-4.228 -10e-4,-2.941 -0.308,-4.246 -1.177,-4.246 m 0.151,9.64 c -0.55,0 -0.986,-0.319 -1.345,-0.674 v 0.453 h -1.174 v -13.643 l 1.174,-0.749 v 4.56 c 0.358,-0.415 0.871,-0.75 1.42,-0.75 1.666,0 2.142,2.074 2.142,5.37 0,3.456 -0.569,5.433 -2.217,5.433"
       id="path29"
       inkscape:connector-curvature="0"
       style="fill:#ffffff" /><path
       d="m 443.771,316.628 c -0.929,0 -1.345,1.342 -1.345,4.204 0,2.864 0.454,4.187 1.382,4.187 0.928,0 1.348,-1.322 1.348,-4.187 0,-2.862 -0.456,-4.204 -1.385,-4.204 m 0.02,9.598 c -1.687,0 -2.556,-1.855 -2.556,-5.394 0,-3.533 0.869,-5.409 2.556,-5.409 1.688,0 2.557,1.876 2.557,5.409 0,3.538 -0.869,5.394 -2.557,5.394"
       id="path31"
       inkscape:connector-curvature="0"
       style="fill:#ffffff" /><path
       d="m 450.779,325.967 c -0.34,0.158 -0.701,0.259 -1.134,0.259 -1.082,0 -1.442,-0.811 -1.442,-2.056 v -7.405 h -0.832 v -1.123 h 0.832 v -3.279 l 1.138,-0.749 v 4.028 h 1.421 v 1.123 h -1.421 v 7.367 c 0,0.591 0.228,0.909 0.55,0.909 0.341,0 0.607,-0.062 1.023,-0.277 l -0.135,1.203 z"
       id="path33"
       inkscape:connector-curvature="0"
       style="fill:#ffffff" /><path
       d="m 452.41,315.642 h 1.172 v 10.363 h -1.172 v -10.363 z m 0.626,-2.036 c -0.435,0 -0.815,-0.454 -0.815,-0.928 0,-0.513 0.381,-0.946 0.815,-0.946 0.434,0 0.772,0.434 0.772,0.946 0.001,0.474 -0.337,0.928 -0.772,0.928"
       id="path35"
       inkscape:connector-curvature="0"
       style="fill:#ffffff" /><path
       d="m 457.789,326.226 c -1.591,0 -2.426,-1.977 -2.426,-5.333 0,-3.555 0.872,-5.47 2.444,-5.47 1.212,0 1.744,1.027 2.064,2.31 l -1.04,0.553 c -0.266,-0.966 -0.453,-1.657 -1.062,-1.657 -0.755,0 -1.211,1.282 -1.211,4.244 0,2.47 0.322,4.146 1.268,4.146 0.494,0 0.72,-0.454 1.138,-1.578 l 0.946,0.592 c -0.452,1.361 -1.098,2.193 -2.121,2.193"
       id="path37"
       inkscape:connector-curvature="0"
       style="fill:#ffffff" /><path
       d="m 463.17,326.226 c -1.175,0 -1.857,-0.909 -2.197,-2.133 l 1.002,-0.613 c 0.322,1.063 0.664,1.562 1.212,1.562 0.704,0 1.062,-0.554 1.062,-1.246 0,-0.887 -0.149,-1.442 -1.4,-2.568 -1.156,-1.045 -1.781,-1.874 -1.781,-3.296 0,-1.401 0.834,-2.508 2.104,-2.508 1.137,0 1.742,0.771 2.101,1.876 l -1.058,0.611 c -0.248,-0.73 -0.531,-1.302 -1.102,-1.302 -0.548,0 -0.889,0.476 -0.889,1.205 0,0.768 0.211,1.284 1.382,2.329 1.25,1.106 1.802,2.093 1.802,3.533 -0.002,1.422 -0.914,2.55 -2.238,2.55"
       id="path39"
       inkscape:connector-curvature="0"
       style="fill:#ffffff" /><polygon
       points="474.8,312.185 474.8,313.408 471.673,313.408 471.673,318.107 473.91,318.107 473.91,319.333 471.673,319.333 471.673,326.005 470.461,326.005 470.461,312.185 "
       id="polygon41"
       style="fill:#ffffff" /><path
       d="m 478.079,316.628 c -0.927,0 -1.348,1.342 -1.348,4.204 0,2.864 0.454,4.187 1.384,4.187 0.93,0 1.347,-1.322 1.347,-4.187 0,-2.862 -0.456,-4.204 -1.383,-4.204 m 0.019,9.598 c -1.686,0 -2.558,-1.855 -2.558,-5.394 0,-3.533 0.872,-5.409 2.558,-5.409 1.688,0 2.556,1.876 2.556,5.409 -10e-4,3.538 -0.868,5.394 -2.556,5.394"
       id="path43"
       inkscape:connector-curvature="0"
       style="fill:#ffffff" /><path
       d="m 485.657,326.005 v -0.511 c -0.4,0.396 -0.891,0.731 -1.61,0.731 -1.289,0 -1.763,-1.049 -1.763,-2.767 v -7.817 h 1.174 v 7.738 c 0,1.246 0.285,1.68 0.965,1.68 0.42,0 0.874,-0.256 1.234,-0.612 v -8.806 h 1.173 v 10.363 h -1.173 z"
       id="path45"
       inkscape:connector-curvature="0"
       style="fill:#ffffff" /><path
       d="m 492.173,326.005 v -7.739 c 0,-1.244 -0.284,-1.68 -0.968,-1.68 -0.416,0 -0.871,0.257 -1.231,0.613 v 8.806 H 488.8 v -10.363 h 1.174 v 0.511 c 0.398,-0.395 0.892,-0.729 1.609,-0.729 1.29,0 1.764,1.046 1.764,2.766 v 7.816 h -1.174 z"
       id="path47"
       inkscape:connector-curvature="0"
       style="fill:#ffffff" /><path
       d="m 498.535,317.22 c -0.435,-0.415 -0.813,-0.634 -1.27,-0.634 -0.89,0 -1.098,1.817 -1.098,4.228 0,2.943 0.304,4.246 1.173,4.246 0.419,0 0.836,-0.256 1.194,-0.612 v -7.228 z m 0,8.785 v -0.53 c -0.358,0.415 -0.872,0.751 -1.42,0.751 -1.668,0 -2.141,-2.076 -2.141,-5.374 0,-3.455 0.568,-5.429 2.217,-5.429 0.549,0 0.985,0.314 1.344,0.673 v -3.733 l 1.174,-0.749 v 14.392 h -1.174 z"
       id="path49"
       inkscape:connector-curvature="0"
       style="fill:#ffffff" /><path
       d="m 504.69,320.852 c -0.339,-0.215 -0.547,-0.354 -1.115,-0.354 -0.836,0 -1.044,0.849 -1.044,2.23 0,1.246 0.208,2.332 0.929,2.332 0.378,0 0.872,-0.237 1.23,-0.633 v -3.575 z m 0,5.153 v -0.492 c -0.413,0.415 -0.889,0.713 -1.459,0.713 -1.287,0 -1.894,-1.226 -1.894,-3.458 0,-2.35 0.759,-3.435 2.199,-3.435 0.475,0 0.834,0.138 1.153,0.376 v -1.699 c 0,-0.968 -0.319,-1.382 -0.967,-1.382 -0.434,0 -0.832,0.296 -1.399,0.908 l -0.702,-0.928 c 0.702,-0.731 1.422,-1.186 2.18,-1.186 1.288,0 2.065,0.515 2.065,2.487 v 8.095 h -1.176 z"
       id="path51"
       inkscape:connector-curvature="0"
       style="fill:#ffffff" /><path
       d="m 510.544,325.967 c -0.341,0.158 -0.7,0.259 -1.136,0.259 -1.08,0 -1.439,-0.811 -1.439,-2.056 v -7.405 h -0.834 v -1.123 h 0.834 v -3.279 l 1.138,-0.749 v 4.028 h 1.417 v 1.123 h -1.417 v 7.367 c 0,0.591 0.226,0.909 0.547,0.909 0.341,0 0.606,-0.062 1.026,-0.277 l -0.136,1.203 z"
       id="path53"
       inkscape:connector-curvature="0"
       style="fill:#ffffff" /><path
       d="m 512.175,315.642 h 1.172 v 10.363 h -1.172 v -10.363 z m 0.622,-2.036 c -0.436,0 -0.814,-0.454 -0.814,-0.928 0,-0.513 0.379,-0.946 0.814,-0.946 0.439,0 0.778,0.434 0.778,0.946 0,0.474 -0.339,0.928 -0.778,0.928"
       id="path55"
       inkscape:connector-curvature="0"
       style="fill:#ffffff" /><path
       d="m 517.666,316.628 c -0.926,0 -1.344,1.342 -1.344,4.204 0,2.864 0.453,4.187 1.383,4.187 0.929,0 1.345,-1.322 1.345,-4.187 0,-2.862 -0.456,-4.204 -1.384,-4.204 m 0.018,9.598 c -1.685,0 -2.554,-1.855 -2.554,-5.394 0,-3.533 0.869,-5.409 2.554,-5.409 1.689,0 2.56,1.876 2.56,5.409 -10e-4,3.538 -0.871,5.394 -2.56,5.394"
       id="path57"
       inkscape:connector-curvature="0"
       style="fill:#ffffff" /><path
       d="m 525.302,326.005 v -7.739 c 0,-1.244 -0.286,-1.68 -0.967,-1.68 -0.418,0 -0.873,0.257 -1.23,0.613 v 8.806 h -1.177 v -10.363 h 1.177 v 0.511 c 0.397,-0.395 0.889,-0.729 1.607,-0.729 1.29,0 1.764,1.046 1.764,2.766 v 7.816 h -1.174 z"
       id="path59"
       inkscape:connector-curvature="0"
       style="fill:#ffffff" /><path
       stroke-miterlimit="10"
       d="m 323.372,317.222 0.017,0.011 c -0.581,0.98 -0.921,2.131 -0.921,3.366 0,2.114 0.978,4.043 2.593,5.238 l -5.049,8.42 -7.65,-13.814 8.137,-14.689 h 9.195 l -6.322,11.468 z m 13.891,17.035 -5.051,-8.42 c 1.62,-1.195 2.597,-3.124 2.597,-5.238 0,-3.547 -2.77,-6.434 -6.172,-6.434 -0.767,0 -1.496,0.154 -2.172,0.42 l 4.868,-8.832 h 5.442 l 8.138,14.689 -7.65,13.815 z"
       id="path61"
       inkscape:connector-curvature="0"
       style="fill:#ffffff;stroke:#ffffff;stroke-width:0.55659997;stroke-miterlimit:10" /></g></svg>