<?xml version="1.0" encoding="UTF-8" standalone="no"?>
<!-- Generator: Adobe Illustrator 16.0.4, SVG Export Plug-In . SVG Version: 6.00 Build 0)  -->

<svg
   xmlns:dc="http://purl.org/dc/elements/1.1/"
   xmlns:cc="http://creativecommons.org/ns#"
   xmlns:rdf="http://www.w3.org/1999/02/22-rdf-syntax-ns#"
   xmlns:svg="http://www.w3.org/2000/svg"
   xmlns="http://www.w3.org/2000/svg"
   xmlns:sodipodi="http://sodipodi.sourceforge.net/DTD/sodipodi-0.dtd"
   xmlns:inkscape="http://www.inkscape.org/namespaces/inkscape"
   version="1.1"
   x="0px"
   y="0px"
   width="188.987"
   height="45.495998"
   viewBox="0 0 188.987 45.495998"
   enable-background="new 0 0 432 144"
   xml:space="preserve"
   id="svg2"
   inkscape:version="0.48.4 r9939"
   sodipodi:docname="propshop_logo.svg"><metadata
     id="metadata71"><rdf:RDF><cc:Work
         rdf:about=""><dc:format>image/svg+xml</dc:format><dc:type
           rdf:resource="http://purl.org/dc/dcmitype/StillImage" /></cc:Work></rdf:RDF></metadata><defs
     id="defs69" /><sodipodi:namedview
     pagecolor="#000000"
     bordercolor="#666666"
     borderopacity="1"
     objecttolerance="10"
     gridtolerance="10"
     guidetolerance="10"
     inkscape:pageopacity="0.79215686"
     inkscape:pageshadow="2"
     inkscape:window-width="2364"
     inkscape:window-height="860"
     id="namedview67"
     showgrid="false"
     fit-margin-top="0"
     fit-margin-left="0"
     fit-margin-right="0"
     fit-margin-bottom="0"
     inkscape:zoom="5.4074073"
     inkscape:cx="79.848172"
     inkscape:cy="25.243941"
     inkscape:window-x="2679"
     inkscape:window-y="197"
     inkscape:window-maximized="0"
     inkscape:current-layer="svg2" /><g
     id="background"
     display="none"
     style="display:none"
     transform="translate(-116.563,-51.781)"><rect
       display="inline"
       width="432"
       height="144"
       id="rect5"
       x="0"
       y="0"
       style="fill:#404853;display:inline" /></g><path
     d="m 171.243,36.748 -0.624,2.885 h 0.092 c 1.078,0 1.846,-1.156 1.846,-2.145 0,-0.729 -0.416,-1.365 -1.43,-1.365 -2.107,0 -3.511,1.184 -3.511,3.16 0,0.662 0.169,0.766 0.183,0.883 -0.897,0 -1.392,-0.324 -1.392,-1.26 0,-1.73 2.392,-3.381 4.563,-3.381 2.041,0 2.951,1.014 2.951,2.08 0,0.768 -0.469,1.572 -1.301,2.055 1.066,0.207 1.495,1.105 1.495,2.119 0,1.676 -1.157,3.717 -2.587,3.717 -0.78,0 -1.534,-0.078 -1.534,-0.896 0,-0.221 0.052,-0.494 0.169,-0.818 0.247,0.402 0.689,0.467 0.871,0.467 0.715,0 1.287,-1.287 1.287,-2.391 0,-0.846 -0.325,-1.6 -1.184,-1.6 -0.168,0 -0.416,0.014 -0.649,0.039 l -1.065,4.979 h -1.873 l 1.769,-8.268 1.924,-0.26 z"
     id="path27"
     inkscape:connector-curvature="0"
     style="fill:#f29f05;fill-opacity:1" /><path
     d="m 177.17,44.34 c 0.638,0 1.729,-0.754 2.185,-1.717 h 0.585 c -0.741,1.34 -1.989,2.652 -3.667,2.652 -1.248,0 -1.924,-0.949 -1.924,-2.066 0,-1.65 0.702,-4.551 3.068,-4.551 1.066,0 1.664,0.443 1.664,1.352 0,1.588 -1.703,2.496 -2.938,2.652 -0.026,0.209 -0.039,0.404 -0.039,0.561 10e-4,0.857 0.56,1.117 1.066,1.117 z m 0.677,-4.992 c -0.729,0 -1.326,1.469 -1.6,2.691 1.196,-0.014 2.041,-1.041 2.055,-1.963 0,-0.273 -0.065,-0.728 -0.455,-0.728 z"
     id="path29"
     inkscape:connector-curvature="0"
     style="fill:#f29f05;fill-opacity:1" /><path
     d="m 182.513,36.721 c 0,0 -0.195,0.885 -0.441,2.055 h 0.779 l -0.104,0.52 h -0.78 c -0.897,4.109 -0.884,4.238 -0.884,4.305 0,0.299 0.13,0.494 0.65,0.494 0.52,0 1.195,-0.729 1.716,-1.145 h 0.442 c -0.599,0.598 -2.067,2.326 -3.082,2.326 -1,0 -1.611,-0.441 -1.611,-1.416 0,-0.689 0.676,-3.445 0.896,-4.564 h -0.429 l 0.104,-0.52 h 0.429 l 0.39,-1.793 1.925,-0.262 z"
     id="path31"
     inkscape:connector-curvature="0"
     style="fill:#f29f05;fill-opacity:1" /><path
     d="m 188.051,43.196 c -0.038,0.156 -0.065,0.299 -0.065,0.443 0,0.271 0.104,0.48 0.469,0.48 0.091,0 0.234,0 0.338,-0.039 -0.363,1.117 -0.91,1.195 -1.352,1.195 -0.754,0 -1.157,-0.389 -1.287,-0.988 -0.391,0.533 -0.976,1.066 -1.769,1.066 -1.248,0 -1.612,-0.883 -1.612,-1.65 0,-2.236 0.807,-4.914 3.406,-4.914 0.312,0 0.637,0.129 0.871,0.324 l 0.078,-0.338 h 1.859 l -0.936,4.421 z M 186.92,39.75 c -0.208,-0.182 -0.455,-0.232 -0.637,-0.232 -0.976,0 -1.755,2.066 -1.755,3.834 0,0.781 0.429,0.924 0.754,0.924 0.299,0 0.585,-0.299 0.845,-0.664 0,-0.129 0.026,-0.273 0.065,-0.416 l 0.728,-3.446 z"
     id="path33"
     inkscape:connector-curvature="0"
     style="fill:#f29f05;fill-opacity:1" /><g
     id="g35"
     transform="translate(-116.563,-51.781)"><path
       style="fill:#ffffff"
       inkscape:connector-curvature="0"
       id="path37"
       d="m 142.925,68.023 v 8.895 h -3.916 V 53.457 h 9.168 c 2.589,0 4.616,0.669 6.083,2.006 1.466,1.338 2.199,3.097 2.199,5.277 0,2.202 -0.732,3.967 -2.199,5.293 -1.467,1.327 -3.494,1.99 -6.083,1.99 h -5.252 z m 0,-3.142 h 5.253 c 1.45,0 2.541,-0.387 3.271,-1.16 0.73,-0.773 1.096,-1.756 1.096,-2.949 0,-1.193 -0.365,-2.186 -1.096,-2.981 -0.731,-0.795 -1.821,-1.192 -3.271,-1.192 h -5.253 v 8.282 z" /><path
       style="fill:#ffffff"
       inkscape:connector-curvature="0"
       id="path39"
       d="m 168.513,63.012 -1.676,-0.064 c -0.764,0 -1.399,0.161 -1.91,0.483 -0.51,0.322 -0.905,0.779 -1.184,1.37 v 12.118 h -3.916 V 59.483 h 3.577 l 0.258,2.53 c 0.44,-0.892 1.007,-1.59 1.7,-2.095 0.692,-0.505 1.49,-0.757 2.393,-0.757 0.236,0 0.456,0.019 0.66,0.057 0.204,0.038 0.393,0.083 0.564,0.137 l -0.466,3.657 z" /><path
       style="fill:#ffffff"
       inkscape:connector-curvature="0"
       id="path41"
       d="m 219.398,68.78 c 0,2.535 -0.596,4.581 -1.789,6.14 -1.191,1.557 -2.851,2.336 -4.978,2.336 -0.988,0 -1.864,-0.178 -2.627,-0.531 -0.763,-0.355 -1.418,-0.876 -1.965,-1.563 v 8.46 h -3.916 V 59.483 h 3.303 l 0.387,2.191 c 0.559,-0.816 1.233,-1.439 2.022,-1.869 0.79,-0.43 1.705,-0.645 2.747,-0.645 2.148,0 3.822,0.852 5.019,2.554 1.199,1.703 1.797,3.945 1.797,6.728 V 68.78 z M 215.5,68.434 c 0,-1.781 -0.336,-3.237 -1.007,-4.369 -0.672,-1.132 -1.674,-1.698 -3.006,-1.698 -0.816,0 -1.509,0.174 -2.078,0.523 -0.569,0.349 -1.026,0.834 -1.369,1.456 v 7.869 c 0.343,0.612 0.8,1.081 1.369,1.408 0.569,0.327 1.273,0.49 2.111,0.49 1.331,0 2.328,-0.49 2.988,-1.472 0.661,-0.981 0.991,-2.271 0.991,-3.87 v -0.337 z" /><path
       style="fill:#ffffff"
       inkscape:connector-curvature="0"
       id="path43"
       d="m 244.244,70.873 c 0,-0.973 -0.361,-1.77 -1.088,-2.39 -0.725,-0.62 -2.006,-1.176 -3.842,-1.668 -2.621,-0.688 -4.639,-1.598 -6.051,-2.731 -1.412,-1.133 -2.119,-2.619 -2.119,-4.456 0,-1.891 0.781,-3.448 2.344,-4.673 1.564,-1.225 3.58,-1.837 6.051,-1.837 2.578,0 4.648,0.696 6.213,2.086 1.562,1.392 2.316,3.059 2.264,5.003 l -0.033,0.097 h -3.754 c 0,-1.203 -0.408,-2.178 -1.225,-2.924 -0.817,-0.746 -1.982,-1.12 -3.496,-1.12 -1.43,0 -2.527,0.311 -3.295,0.933 -0.77,0.622 -1.152,1.425 -1.152,2.412 0,0.89 0.416,1.629 1.248,2.219 0.832,0.59 2.211,1.146 4.133,1.672 2.525,0.677 4.441,1.611 5.752,2.804 1.311,1.193 1.967,2.712 1.967,4.56 0,1.955 -0.781,3.51 -2.344,4.665 -1.564,1.155 -3.619,1.732 -6.164,1.732 -2.449,0 -4.598,-0.652 -6.445,-1.957 -1.848,-1.307 -2.744,-3.086 -2.691,-5.342 l 0.033,-0.097 h 3.77 c 0,1.429 0.494,2.495 1.482,3.199 0.988,0.703 2.271,1.055 3.852,1.055 1.449,0 2.578,-0.291 3.383,-0.873 0.805,-0.585 1.207,-1.374 1.207,-2.369 z" /><path
       style="fill:#ffffff"
       inkscape:connector-curvature="0"
       id="path45"
       d="m 255.652,61.739 c 0.58,-0.816 1.287,-1.45 2.119,-1.901 0.832,-0.451 1.754,-0.677 2.764,-0.677 1.848,0 3.289,0.583 4.326,1.748 1.037,1.166 1.555,2.962 1.555,5.39 V 76.918 H 262.5 V 66.267 c 0,-1.375 -0.273,-2.369 -0.82,-2.981 -0.549,-0.612 -1.371,-0.918 -2.467,-0.918 -0.762,0 -1.447,0.159 -2.053,0.475 -0.607,0.317 -1.109,0.755 -1.508,1.313 v 12.762 h -3.916 V 51.781 h 3.916 v 9.958 z" /><path
       style="fill:#ffffff"
       inkscape:connector-curvature="0"
       id="path47"
       d="m 269.752,68.039 c 0,-2.589 0.709,-4.716 2.127,-6.381 1.439,-1.665 3.389,-2.498 5.85,-2.498 2.502,0 4.463,0.833 5.881,2.498 1.428,1.654 2.143,3.781 2.143,6.381 v 0.338 c 0,2.621 -0.715,4.759 -2.143,6.414 -1.418,1.643 -3.367,2.465 -5.85,2.465 -2.492,0 -4.453,-0.827 -5.881,-2.481 -1.418,-1.654 -2.127,-3.787 -2.127,-6.397 v -0.339 z m 3.916,0.33 c 0,1.695 0.332,3.079 0.998,4.152 0.656,1.062 1.688,1.592 3.094,1.592 1.365,0 2.385,-0.53 3.062,-1.592 0.688,-1.073 1.031,-2.457 1.031,-4.152 v -0.338 c 0,-1.663 -0.344,-3.031 -1.031,-4.104 -0.678,-1.083 -1.709,-1.625 -3.094,-1.625 -1.365,0 -2.385,0.542 -3.062,1.625 -0.666,1.084 -0.998,2.451 -0.998,4.104 v 0.338 z" /><path
       style="fill:#ffffff"
       inkscape:connector-curvature="0"
       id="path49"
       d="m 304.443,68.78 c 0,2.535 -0.596,4.581 -1.789,6.14 -1.191,1.557 -2.852,2.336 -4.979,2.336 -0.988,0 -1.863,-0.178 -2.627,-0.531 -0.762,-0.355 -1.418,-0.876 -1.965,-1.563 v 8.46 h -3.916 V 59.483 h 3.303 l 0.387,2.191 c 0.559,-0.816 1.234,-1.439 2.023,-1.869 0.789,-0.43 1.705,-0.645 2.746,-0.645 2.148,0 3.822,0.852 5.02,2.554 1.199,1.703 1.797,3.945 1.797,6.728 v 0.338 z m -3.898,-0.346 c 0,-1.781 -0.336,-3.237 -1.008,-4.369 -0.672,-1.132 -1.674,-1.698 -3.006,-1.698 -0.816,0 -1.508,0.174 -2.078,0.523 -0.568,0.349 -1.025,0.834 -1.369,1.456 v 7.869 c 0.344,0.612 0.801,1.081 1.369,1.408 0.57,0.327 1.273,0.49 2.111,0.49 1.332,0 2.328,-0.49 2.988,-1.472 0.662,-0.981 0.992,-2.271 0.992,-3.87 v -0.337 z" /></g><g
     id="g51"
     transform="translate(-116.563,-51.781)"><path
       style="fill:#ffffff"
       inkscape:connector-curvature="0"
       id="path53"
       d="m 124.058,79.098 c 0,1.448 -0.524,2.246 -2.036,2.246 -2.793,0 -5.459,-2.205 -5.459,-7.391 0,-0.966 0.545,-3.527 0.545,-5.669 0,-1.029 -0.125,-1.953 -0.504,-2.541 0.945,0.525 1.533,0.819 6.51,1.806 -0.715,-0.924 -1.323,-1.995 -1.323,-3.002 0,-1.134 1.218,-2.415 2.624,-2.415 0.168,0 0.336,0 0.504,0.042 l 4.011,0.861 c 0.252,0.063 0.483,0.105 0.672,0.105 0.462,0 0.776,-0.231 0.776,-1.05 0,-0.84 -1.176,-1.932 -1.848,-2.771 v -0.714 c 0.967,0.966 3.759,3.338 3.759,4.976 0,1.638 -0.714,2.604 -2.288,2.604 -0.336,0 -0.672,-0.042 -1.071,-0.126 l -3.779,-0.798 c -0.188,-0.042 -0.378,-0.063 -0.546,-0.063 -0.756,0 -1.238,0.399 -1.238,0.966 0,0.588 0.209,1.029 0.608,1.554 2.058,0.399 4.703,0.903 8.314,1.554 v 3.023 l -13.396,-2.876 c -0.084,0.84 -0.23,1.806 -0.357,2.771 l 13.753,2.961 v 3.023 l -13.941,-3.003 c 0.104,2.331 0.987,4.22 4.283,4.22 1.071,0 1.239,-0.273 1.427,-0.293 z" /><path
       style="fill:#ffffff"
       inkscape:connector-curvature="0"
       id="path55"
       d="m 128.95,61.1 c -2.666,0 -7.348,-1.134 -7.348,-4.955 0,-1.722 0.713,-2.688 2.184,-2.688 2.561,0 4.031,2.75 4.283,4.745 0.336,0.042 0.65,0.063 0.902,0.063 1.386,0 1.806,-0.693 1.806,-1.512 0,-0.987 -0.567,-1.827 -1.344,-2.688 2.268,0 2.855,1.827 2.855,3.926 10e-4,2.017 -1.532,3.109 -3.338,3.109 z m -6.236,-5.648 c 0,1.176 2.372,2.142 4.347,2.583 -0.021,-1.932 -1.68,-3.296 -3.171,-3.317 -0.44,-0.001 -1.176,0.104 -1.176,0.734 z" /></g><path
     stroke-miterlimit="10"
     d="m 67.947,12.824 c -0.16,0.088 2.513,7.902 2.513,7.902 0.833,2.824 -0.321,3.588 -0.321,3.588 -0.846,0.387 -2.62,0.498 -2.62,0.498 -0.689,-0.018 -1.993,-0.789 -1.993,-0.789 -0.253,1.183 -1.218,1.283 -1.218,1.283 -2.393,0.734 -3.147,-0.381 -3.147,-0.381 -3.474,-3.867 -4.784,-7.367 -4.784,-7.367 -1.532,-4.068 -0.563,-5.401 -0.563,-5.401 0.263,-1.128 2.965,-1.35 2.965,-1.35 1.201,0.033 1.636,-0.694 1.636,-0.694 0.295,-1.269 1.04,-2.012 1.04,-2.012 0.587,-0.855 3.279,-1.133 3.279,-1.133 1.007,-0.068 1.244,-0.485 1.244,-0.485 0.981,-2.12 2.946,-2.304 2.946,-2.304 1.605,-0.434 3.614,0.73 3.614,0.73 0.211,0.09 0.938,0.192 1.276,-0.296 0.92,-1.328 2.695,-1.651 2.695,-1.651 0,0 2.968,-0.412 4.574,1.721 0,0 1.6,1.449 1.875,5.396 0,0 0.201,3.363 0.3,4.393 0,0 0.619,2.512 0.593,3.223 0,0 0.232,1.822 -1.449,3.72 -0.115,0.132 -0.243,0.265 -0.38,0.397 0,0 -1.903,1.369 -4.634,0.267 0,0 -0.434,-0.021 -0.52,0.152 0,0 -0.558,0.812 -1.656,1.54 0,0 -1.549,1.162 -3.922,0.403 0,0 -0.026,-0.065 -0.252,0.334 0,0 -0.309,0.244 0.053,1.04 0,0 0.199,0.77 1.354,1.102 0,0 1.666,0.951 2.632,1.086 0,0 0.083,0.042 0.236,0.094 0.46,0.157 1.562,0.402 2.989,-0.141 0,0 1.881,-0.641 2.72,-1.834 0,0 0.896,-1.301 1.295,-2.862 0.398,-1.564 0.098,-0.45 0.137,-0.558 0.04,-0.104 0.234,-0.928 0.091,-0.975"
     id="path59"
     inkscape:connector-curvature="0"
     style="fill:none;stroke:#f29f05;stroke-width:1.07000000000000006;stroke-linecap:round;stroke-miterlimit:10;stroke-dasharray:none;stroke-opacity:1" /><path
     stroke-miterlimit="10"
     d="m 62.339,15.462 c 0,0 1.365,3.222 1.849,4.087 0,0 1.57,3.414 1.358,4.395"
     id="path61"
     inkscape:connector-curvature="0"
     style="fill:none;stroke:#f29f05;stroke-width:1.02699995000000022;stroke-linecap:round;stroke-miterlimit:10;stroke-opacity:1" /><path
     stroke-miterlimit="10"
     d="m 74.205,9.698 0.008,0.228 c 0,0 0.682,3.438 0.752,3.663 0,0 0.248,1.082 0.568,2.463 0.757,3.274 1.532,6.391 1.363,5.803"
     id="path63"
     inkscape:connector-curvature="0"
     style="fill:none;stroke:#f29f05;stroke-width:1.02699995000000022;stroke-linecap:round;stroke-linejoin:round;stroke-miterlimit:10;stroke-opacity:1" /><path
     stroke-miterlimit="10"
     d="m 71.139,25.383 c 0,0 1.282,-0.155 2.05,0.014 0,0 1.451,0.321 2.049,0.801 0.529,0.434 0.123,1.539 0.16,1.409"
     id="path65"
     inkscape:connector-curvature="0"
     style="fill:none;stroke:#f29f05;stroke-width:0.71299999999999997;stroke-miterlimit:10;stroke-dasharray:none;stroke-opacity:1" /></svg>